<svg width="17" height="16" viewBox="0 0 17 16" fill="none" xmlns="http://www.w3.org/2000/svg">
<g clip-path="url(#clip0_1138_4592)">
<path d="M2.61589 2H14.6159C14.7927 2 14.9623 2.07024 15.0873 2.19526C15.2123 2.32029 15.2826 2.48986 15.2826 2.66667V13.3333C15.2826 13.5101 15.2123 13.6797 15.0873 13.8047C14.9623 13.9298 14.7927 14 14.6159 14H2.61589C2.43907 14 2.26951 13.9298 2.14448 13.8047C2.01946 13.6797 1.94922 13.5101 1.94922 13.3333V2.66667C1.94922 2.48986 2.01946 2.32029 2.14448 2.19526C2.26951 2.07024 2.43907 2 2.61589 2V2ZM13.9492 7.33333H3.28255V12.6667H13.9492V7.33333ZM13.9492 6V3.33333H3.28255V6H13.9492ZM9.94922 10H12.6159V11.3333H9.94922V10Z" fill="white"/>
</g>
<defs>
<clipPath id="clip0_1138_4592">
<rect width="16" height="16" fill="white" transform="translate(0.617188)"/>
</clipPath>
</defs>
</svg>
